<?xml version="1.0" encoding="utf-8"?>
<!-- Generator: Adobe Illustrator 17.1.0, SVG Export Plug-In . SVG Version: 6.00 Build 0)  -->
<!DOCTYPE svg PUBLIC "-//W3C//DTD SVG 1.1//EN" "http://www.w3.org/Graphics/SVG/1.1/DTD/svg11.dtd">
<svg version="1.1" id="Layer_1" xmlns="http://www.w3.org/2000/svg" xmlns:xlink="http://www.w3.org/1999/xlink" x="0px" y="0px"
	 viewBox="0 0 128 128" enable-background="new 0 0 128 128" xml:space="preserve">
<g>
	<path id="path12688" fill="#7F0000" d="M89.5,38.9C91.3,26.4,84.4,9.3,65.1,9c-25-0.5-29.6,17.5-28.4,31
		C38.3,56.3,86.3,60.9,89.5,38.9L89.5,38.9z"/>
	
		<linearGradient id="path12692_1_" gradientUnits="userSpaceOnUse" x1="-238.5049" y1="452.177" x2="-238.5052" y2="453.1721" gradientTransform="matrix(120.7975 0 0 -41.9466 28874.7988 19088.6523)">
		<stop  offset="0" style="stop-color:#000000"/>
		<stop  offset="1" style="stop-color:#747474"/>
	</linearGradient>
	<path id="path12692" fill="url(#path12692_1_)" stroke="#000000" d="M3.6,118.6c2.8-7.7,4-22,13.6-26.8l44.6-9.5l46.6,8.9
		c8.2,2.9,12.1,18.9,16,27.9c-2.6,1.8-4.8,4.5-7.8,5.2H10.9C7.5,122.9,5.8,120.7,3.6,118.6L3.6,118.6z"/>
	
		<radialGradient id="path12694_1_" cx="2579.7695" cy="66.3845" r="15.009" gradientTransform="matrix(0.1038 8.145200e-002 0.214 -0.2727 -446.8474 -121.8919)" gradientUnits="userSpaceOnUse">
		<stop  offset="0" style="stop-color:#FFEED6"/>
		<stop  offset="1" style="stop-color:#FFCD8B"/>
	</radialGradient>
	
		<linearGradient id="path12694_2_" gradientUnits="userSpaceOnUse" x1="-234.0157" y1="448.8094" x2="-234.0594" y2="447.8302" gradientTransform="matrix(37.1026 0 0 -28.0737 8745.6094 12680.3066)">
		<stop  offset="0" style="stop-color:#D49C56"/>
		<stop  offset="1" style="stop-color:#D49C56;stop-opacity:0.258"/>
	</linearGradient>
	<path id="path12694" fill="url(#path12694_1_)" stroke="url(#path12694_2_)" d="M48.7,72.4c0.2,5.8-1.1,9.1-3.8,14
		c10.5,19.3,37.8,9.4,37.1-0.5l-3-16.5L48.7,72.4L48.7,72.4z"/>
	
		<radialGradient id="path12696_1_" cx="-82.3802" cy="198.2367" r="21.607" gradientTransform="matrix(0.7193 -1.719900e-002 -3.513200e-002 -1.4693 -95.5119 322.6024)" gradientUnits="userSpaceOnUse">
		<stop  offset="0" style="stop-color:#FFEED6"/>
		<stop  offset="1" style="stop-color:#FFCD8B"/>
	</radialGradient>
	
		<linearGradient id="path12696_2_" gradientUnits="userSpaceOnUse" x1="-235.5541" y1="454.7632" x2="-235.4399" y2="455.8397" gradientTransform="matrix(48.1366 0 0 -63.1559 11398.9561 28803.8281)">
		<stop  offset="0" style="stop-color:#D49C56"/>
		<stop  offset="1" style="stop-color:#D49C56;stop-opacity:0"/>
	</linearGradient>
	<path id="path12696" fill="url(#path12696_1_)" stroke="url(#path12696_2_)" d="M87.2,41.4c-0.6,9.1-0.8,20.2-2.9,29.4
		c0,0-9.3,8.4-14.5,10.7c-5.2,2.3-6.6,2-11.5-0.1c-4.9-2.1-16.2-10.1-16.2-10.1C37.2,51.6,35.6,31,57.2,20l6.4,7.6
		c2.4,2.8,12.8,7.2,16.7,3.4C83.5,28,85.4,38.9,87.2,41.4L87.2,41.4z"/>
	
		<linearGradient id="path13605_1_" gradientUnits="userSpaceOnUse" x1="-234.8792" y1="452.7668" x2="-231.9254" y2="451.8288" gradientTransform="matrix(29.0428 0 0 -38.8614 6799.0674 17624.0156)">
		<stop  offset="0" style="stop-color:#FFFFFF"/>
		<stop  offset="1" style="stop-color:#FFFFFF;stop-opacity:0"/>
	</linearGradient>
	<path id="path13605" fill="url(#path13605_1_)" d="M41,43c-0.8,9.1,0.5,17.9,2.6,27.2c5.6,4.5,9.8,10.5,21.5,8.1
		c4-0.9,2.5-2.8,4.8-4c-13.8,4.1-16,1.2-23.1-7.1L42,39.9L41,43L41,43z"/>
</g>
<g>
	<g>
		<path id="svg_6" fill="#FFFFFF" stroke="#000000" d="M69,91c0,0-13,0.3-13.3,0c-0.3-0.3-11.3,11.3-11.7,11c-0.3-0.3,14,22,16.3,22
			c2.3,0,0.7-0.3,4.3-0.7c3.7-0.3,17.7-25,17.7-25L69,91L69,91z"/>
		<path id="svg_10" fill="#FF0000" d="M58,101c0,0-7.3,10-7.7,10c-0.3,0,8.7,12.7,8.3,12.7H64c-0.3,0,7.7-12.3,7.7-12.3
			s-5-11-5.3-11C66,100.3,58,101,58,101L58,101z"/>
	</g>
	<path id="svg_2" d="M43.4,83.7l-15.1,5l-1.9,13l12,0.3l-5,7L60,124L43.4,83.7L43.4,83.7z"/>
	<path id="svg_3" d="M83.9,83.7l18.5,5l2.6,13L90.2,102l6.2,7l-33,15L83.9,83.7L83.9,83.7z"/>
	<g>
		<g>
			<path id="svg_4" fill="#FFFFFF" stroke="#000000" d="M43.3,84l3-4.3l14,11.3l-10.7,10L43.3,84L43.3,84z"/>
			<path id="svg_5" fill="#FFFFFF" stroke="#000000" d="M83.8,83.8l-3.1-4.3L66.5,90.8l10.9,10L83.8,83.8L83.8,83.8z"/>
		</g>
		<path id="svg_8" fill="#FF0000" stroke="#FF0000" d="M59.7,91c0,0-5,6-5.3,6c-0.3,0,4.3,4.3,4,4c-0.3-0.3,9.3,0,9.3,0l4.3-4.7
			c0,0-5.7-5.7-6-5.7C65.7,90.7,59.7,91,59.7,91L59.7,91z"/>
		<path id="svg_15" d="M58.7,106.7c0,0,4-6,3.7-6c-0.3,0,3.7,6,3.3,6c-0.3,0-3.7-3-3.7-3L58.7,106.7z"/>
	</g>
</g>
</svg>
