<?xml version="1.0" encoding="UTF-8"?>
<!DOCTYPE svg PUBLIC "-//W3C//DTD SVG 1.1//EN" "http://www.w3.org/Graphics/SVG/1.1/DTD/svg11.dtd">
<svg version="1.1" xmlns="http://www.w3.org/2000/svg" xmlns:xlink="http://www.w3.org/1999/xlink" x="0" y="0" width="270" height="30" viewBox="0, 0, 900, 100">
  <g id="Layer_1">
    <path d="M20.725,5.526 L21.538,5.942 C21.62,5.985 29.889,10.198 34.282,10.609 C34.462,10.617 34.69,10.622 34.921,10.622 C38.125,10.622 41.734,9.541 45.555,8.397 C49.926,7.086 54.447,5.731 59.077,5.731 C61.696,5.731 64.059,6.162 66.305,7.048 L68.075,7.747 C71.348,6.387 74.928,6.101 78.418,5.827 C81.689,5.923 84.197,6.679 86.621,7.412 C89.379,8.245 92.232,9.107 96.347,9.107 C99.423,9.107 102.875,8.632 106.894,7.656 L107.549,7.497 L108.008,7.99 C114.845,15.317 119.757,28.545 121.148,43.375 L121.219,44.143 L120.537,44.502 C115.81,46.98 110.914,50.76 105.129,56.395 L104.581,56.929 C106.266,60.746 106.737,64.979 107.308,69.068 L107.334,69.31 L107.26,69.542 C106.511,71.865 103.633,74.145 101.443,74.145 C101.435,74.145 101.43,74.144 101.423,74.144 C101.71,75.694 101.236,77.297 100.091,78.777 C98.375,80.992 95.355,82.662 93.066,82.662 C92.427,82.662 91.849,82.533 91.357,82.29 C91.513,83.154 91.32,84.062 90.779,84.903 C89.492,86.898 86.652,88.091 84.65,88.091 C83.742,88.091 82.976,87.846 82.425,87.396 C82.242,87.995 81.921,88.571 81.472,89.103 C80.117,90.711 77.795,91.75 75.555,91.75 C73.825,91.768 72.537,91.103 71.275,89.989 C69.583,91.959 67.191,93.05 64.851,94.028 C64.342,94.203 63.686,94.292 62.9,94.292 C60.879,94.292 57.24,93.609 55.85,92.144 L55.672,91.925 C55.231,91.448 54.979,90.847 54.96,90.2 C53.174,90.758 54.024,90.611 52.428,90.731 C50.705,90.731 48.962,90.127 47.522,89.029 C46.085,87.941 45.226,86.389 45.169,84.774 C45.263,83.564 45.107,84.023 45.408,83.339 C43.033,84.221 44.154,84.005 42.088,84.173 C40.099,84.173 38.07,83.534 36.659,82.466 C34.847,81.086 33.58,78.587 33.578,76.388 C33.711,75.028 33.535,75.665 34.081,74.469 C33.362,74.715 33.784,74.613 32.797,74.69 C30.841,74.69 28.543,73.626 26.651,71.847 C25.126,70.366 24.204,67.88 24.346,65.648 C24.404,64.285 25.008,63.065 25.979,62.13 L25.617,61.722 C24.427,60.384 23.262,59.022 22.096,57.659 C17.652,52.466 13.056,47.098 7.214,43.38 L6.666,43.033 L6.681,42.383 C6.936,31.544 8.743,19.66 20.135,6.222 L20.725,5.526 z M72.054,76.875 L71.349,77.268 C70.183,78.305 69.087,79.495 67.927,80.754 C65.635,83.243 63.036,86.065 58.675,89.18 L58.464,89.33 C58.039,89.63 57.475,90.029 57.286,90.262 C57.32,90.314 57.381,90.389 57.482,90.492 L57.66,90.684 C58.462,91.302 60.872,91.99 62.9,91.99 C63.622,91.99 63.978,91.894 64.097,91.854 C69.062,90.125 71.803,86.44 74.398,82.495 C75.232,81.219 75.289,78.445 74.495,77.632 L74.378,77.495 C73.212,76.704 73.945,77.027 72.054,76.875 z M78.611,81.895 C77.937,84.563 76.267,87.271 74.011,89.157 C74.552,89.384 75.107,89.448 75.555,89.448 C77.095,89.448 78.806,88.696 79.713,87.619 C80.037,87.237 80.398,86.639 80.285,85.974 C79.878,84.124 79.219,82.827 78.611,81.895 z M70.462,61.528 C69.382,61.528 68.246,61.948 67.162,62.745 C64.218,67.027 59.845,71.178 55.981,74.845 C53.142,77.541 50.46,80.086 48.624,82.385 L48.483,82.533 C47.791,83.138 47.441,83.884 47.469,84.693 C47.503,85.613 48.028,86.527 48.915,87.197 C49.961,87.994 51.218,88.404 52.432,88.404 C53.425,88.404 54.39,88.13 55.189,87.57 C63.296,81.937 68.822,75.096 73.787,68.573 C74.812,67.138 74.974,65.362 74.199,63.856 C73.459,62.42 72.027,61.528 70.462,61.528 z M78.113,63.492 C78.949,66.285 78.509,70.165 75.199,73.643 C77.548,74.504 78.398,76.333 78.705,77.516 C78.76,77.724 78.805,77.937 78.838,78.151 C80.449,79.045 82.702,82.84 83.834,85.566 C83.889,85.691 84.214,85.789 84.65,85.789 C86.124,85.789 88.125,84.772 88.843,83.657 C89.22,83.072 89.115,82.677 89.002,82.43 C85.797,74.897 82.14,68.542 78.113,63.492 z M62.805,49.728 C61.657,49.728 60.534,50.304 59.726,51.308 C52.103,60.786 44.528,68.455 36.568,74.751 C36.105,75.106 35.878,75.653 35.879,76.384 C35.882,77.864 36.815,79.69 38.052,80.632 C39.042,81.385 40.628,81.871 42.088,81.871 C43.366,81.871 44.409,81.515 45.026,80.871 C47.352,78.471 49.851,76.141 52.266,73.889 C58.196,68.357 63.798,63.134 66.835,57.155 C67.816,55.235 66.946,51.958 65.077,50.537 C64.388,50.007 63.604,49.728 62.805,49.728 z M71.367,28.948 C69.976,30.328 67.051,32.49 62.386,32.49 C61.525,32.49 60.633,32.415 59.725,32.268 C57.394,35.836 54.174,38.79 50.58,40.823 C51.087,40.746 51.584,40.708 52.065,40.708 C54.271,40.708 57.977,41.549 59.479,46.825 C60.687,46.158 61.902,45.82 63.108,45.82 C65.678,45.82 68.062,47.403 69.648,50.16 C71.088,52.668 71.591,55.617 71.072,57.946 C73.738,58.088 75.992,59.445 77.301,61.639 L78.558,60.434 C83.728,65.259 88.127,71.603 92.006,79.824 C92.084,80.001 92.246,80.361 93.066,80.361 C94.658,80.361 96.993,79.018 98.271,77.366 C98.828,76.649 99.429,75.566 99.148,74.475 C96.474,67.01 93.094,60.897 88.217,54.757 L89.996,53.296 L90.127,53.45 C94.361,58.429 98.74,63.58 100.943,71.37 C101.061,71.812 101.211,71.844 101.443,71.844 C102.501,71.844 104.4,70.469 104.99,69.048 C102.236,44.279 85.361,33.573 71.367,28.948 z M51.525,44.799 C50.256,44.799 48.982,45.183 48.029,45.854 C45.259,47.807 42.811,50.177 39.977,52.921 C36.652,56.14 32.884,59.788 27.535,63.802 C26.87,64.303 26.682,65.161 26.642,65.793 C26.544,67.342 27.217,69.189 28.242,70.182 C29.66,71.516 31.454,72.387 32.797,72.387 C33.402,72.387 33.904,72.222 34.327,71.881 C43.211,64.637 48.464,58.907 53.542,53.365 L55.003,51.774 C56.467,50.157 56.317,47.466 54.671,45.908 C53.925,45.19 52.81,44.799 51.525,44.799 z M59.077,8.033 C54.784,8.033 50.428,9.339 46.215,10.601 C42.236,11.793 38.457,12.925 34.937,12.925 C34.662,12.925 34.388,12.918 34.116,12.904 C30.067,12.526 23.602,9.519 21.312,8.401 C11.117,20.748 9.297,31.739 8.999,41.796 C14.865,45.671 19.427,51.002 23.844,56.161 C24.768,57.241 25.69,58.32 26.625,59.385 C31.097,55.884 34.435,52.672 37.401,49.818 C40.016,47.302 42.312,45.093 44.859,43.172 C41.902,43.954 38.862,44.074 36.024,43.476 C32.919,42.698 31.771,41.014 31.348,39.736 C30.573,37.399 31.627,34.941 32.767,33.547 C33.553,32.573 34.336,31.585 35.119,30.594 C41.368,22.708 47.829,14.554 58.629,9.846 C59.155,9.62 59.689,9.379 60.239,9.13 C60.85,8.855 61.49,8.565 62.161,8.278 C61.175,8.114 60.151,8.033 59.077,8.033 z M78.421,8.127 C70.984,8.388 62.774,11.383 54.094,17.031 C46.821,21.799 35.897,36.136 35.786,36.28 L35.435,36.736 C35.293,37.167 35.159,37.946 35.38,38.654 C35.547,39.188 35.874,39.531 36.409,39.733 C36.799,39.881 37.558,40.057 38.987,40.057 C40.878,40.057 42.846,39.75 43.228,39.687 L43.527,39.596 C45.635,38.964 52.052,37.042 56.725,28.772 L57.142,28.035 L57.969,28.213 C59.242,28.486 60.45,28.626 61.56,28.626 C66.095,28.626 68.119,26.333 69.207,25.102 L69.935,24.29 L70.652,24.532 C88.552,30.587 99.156,39.574 104.779,53.539 C109.921,48.659 114.419,45.221 118.781,42.831 C117.378,29.131 112.927,16.988 106.771,10.052 C102.852,10.964 99.437,11.408 96.347,11.408 C91.892,11.408 88.875,10.497 85.955,9.615 C83.57,8.894 81.316,8.214 78.421,8.127 z" fill="#FFFFFF"/>
    <path d="M240.21,20.495 Q248.208,20.495 252.597,26.852 Q256.986,33.21 256.986,44.161 Q256.986,55.194 251.387,61.962 Q245.788,68.729 237.585,68.729 Q234.14,68.729 231.597,67.95 Q229.054,67.171 226.183,65.53 L226.183,84.725 L211.827,84.725 L211.827,21.766 L226.183,21.766 L226.183,26.565 Q229.341,23.858 232.622,22.177 Q235.904,20.495 240.21,20.495 z M233.771,31.651 Q231.843,31.651 229.936,32.266 Q228.029,32.882 226.183,34.112 L226.183,57.286 Q227.331,57.778 228.705,57.983 Q230.079,58.188 231.966,58.188 Q237.216,58.188 239.759,54.764 Q242.302,51.339 242.302,44.448 Q242.302,37.722 240.231,34.686 Q238.159,31.651 233.771,31.651 z" fill="#FFFFFF"/>
    <path d="M676.862,20.331 Q688.183,20.331 694.417,26.873 Q700.652,33.415 700.652,44.817 Q700.652,56.179 694.438,62.721 Q688.224,69.263 676.863,69.263 Q665.583,69.263 659.328,62.721 Q653.073,56.179 653.073,44.817 Q653.073,33.333 659.328,26.832 Q665.583,20.331 676.863,20.331 z M676.862,30.626 Q674.935,30.626 673.376,31.221 Q671.818,31.815 670.505,33.497 Q669.275,35.097 668.536,37.886 Q667.798,40.675 667.798,44.899 Q667.798,49.124 668.495,51.728 Q669.193,54.333 670.3,55.891 Q671.448,57.491 673.171,58.229 Q674.894,58.968 676.986,58.968 Q678.708,58.968 680.492,58.229 Q682.277,57.491 683.343,56.014 Q684.615,54.251 685.271,51.769 Q685.927,49.288 685.927,44.899 Q685.927,40.798 685.25,38.07 Q684.573,35.343 683.384,33.702 Q682.113,31.979 680.513,31.303 Q678.913,30.626 676.863,30.626 z" fill="#FFFFFF"/>
    <path d="M430.277,20.495 Q435.116,20.495 439.177,21.459 Q443.238,22.423 446.027,23.776 L446.027,35.425 L444.878,35.425 Q444.14,34.85 442.54,33.887 Q440.941,32.923 439.423,32.225 Q437.618,31.405 435.383,30.872 Q433.148,30.339 430.81,30.339 Q427.693,30.339 425.539,31.405 Q423.386,32.472 423.386,34.235 Q423.386,35.794 424.452,36.696 Q425.519,37.598 429.087,38.46 Q430.933,38.911 433.332,39.342 Q435.732,39.772 437.947,40.511 Q442.909,42.11 445.473,45.207 Q448.036,48.304 448.036,53.431 Q448.036,56.671 446.519,59.603 Q445.001,62.536 442.212,64.546 Q439.259,66.72 435.26,67.909 Q431.261,69.098 425.683,69.098 Q420.597,69.098 416.065,67.991 Q411.532,66.884 408.579,65.407 L408.579,53.266 L409.769,53.266 Q410.794,54.046 412.107,54.989 Q413.419,55.932 415.757,56.958 Q417.767,57.901 420.289,58.578 Q422.812,59.255 425.765,59.255 Q428.8,59.255 431.117,58.311 Q433.435,57.368 433.435,55.317 Q433.435,53.718 432.368,52.897 Q431.302,52.077 428.226,51.339 Q426.585,50.929 424.083,50.457 Q421.581,49.985 419.654,49.37 Q414.24,47.688 411.512,44.387 Q408.784,41.085 408.784,35.712 Q408.784,32.636 410.199,29.908 Q411.615,27.181 414.363,25.048 Q417.111,22.956 421.151,21.725 Q425.191,20.495 430.277,20.495 z" fill="#FFFFFF"/>
    <path d="M281.595,20.454 Q293.49,20.454 298.924,24.412 Q304.359,28.37 304.359,36.491 L304.359,67.827 L290.085,67.827 L290.085,62.946 Q288.609,64.177 287.44,65.161 Q286.271,66.145 284.302,67.13 Q282.374,68.073 280.549,68.565 Q278.724,69.057 275.443,69.057 Q269.331,69.057 265.291,64.956 Q261.251,60.854 261.251,54.62 Q261.251,49.493 263.302,46.335 Q265.353,43.177 269.208,41.331 Q273.105,39.444 278.519,38.706 Q283.933,37.968 290.167,37.557 L290.167,37.311 Q290.167,33.497 287.358,32.041 Q284.548,30.585 278.929,30.585 Q276.386,30.585 272.982,31.508 Q269.577,32.431 266.337,33.866 L265.107,33.866 L265.107,22.751 Q267.24,22.136 271.997,21.295 Q276.755,20.454 281.595,20.454 z M290.085,46.212 Q286.435,46.581 284.179,46.848 Q281.923,47.114 279.749,47.893 Q277.863,48.55 276.817,49.883 Q275.771,51.216 275.771,53.431 Q275.771,56.671 277.514,57.881 Q279.257,59.091 282.661,59.091 Q284.548,59.091 286.517,58.229 Q288.486,57.368 290.085,55.809 L290.085,46.212 z" fill="#FFFFFF"/>
    <path d="M471.784,20.454 Q483.679,20.454 489.114,24.412 Q494.548,28.37 494.548,36.491 L494.548,67.827 L480.275,67.827 L480.275,62.946 Q478.798,64.177 477.629,65.161 Q476.46,66.145 474.491,67.13 Q472.564,68.073 470.739,68.565 Q468.913,69.057 465.632,69.057 Q459.521,69.057 455.481,64.956 Q451.441,60.854 451.441,54.62 Q451.441,49.493 453.491,46.335 Q455.542,43.177 459.398,41.331 Q463.294,39.444 468.708,38.706 Q474.122,37.968 480.357,37.557 L480.357,37.311 Q480.357,33.497 477.547,32.041 Q474.738,30.585 469.118,30.585 Q466.575,30.585 463.171,31.508 Q459.767,32.431 456.527,33.866 L455.296,33.866 L455.296,22.751 Q457.429,22.136 462.187,21.295 Q466.945,20.454 471.784,20.454 z M480.275,46.212 Q476.624,46.581 474.368,46.848 Q472.113,47.114 469.939,47.893 Q468.052,48.55 467.006,49.883 Q465.96,51.216 465.96,53.431 Q465.96,56.671 467.703,57.881 Q469.447,59.091 472.851,59.091 Q474.738,59.091 476.706,58.229 Q478.675,57.368 480.275,55.809 L480.275,46.212 z" fill="#FFFFFF"/>
    <path d="M634.329,20.495 Q638.144,20.495 641.958,21.377 Q645.773,22.259 649.628,24.186 L649.628,36.491 L647.782,36.491 Q646.921,35.671 645.67,34.686 Q644.419,33.702 642.943,32.882 Q641.384,32.02 639.415,31.426 Q637.447,30.831 635.027,30.831 Q629.531,30.831 626.516,34.666 Q623.501,38.501 623.501,44.981 Q623.501,51.913 626.721,55.317 Q629.941,58.722 635.273,58.722 Q637.98,58.722 640.031,58.106 Q642.081,57.491 643.558,56.63 Q644.993,55.768 646.019,54.846 Q647.044,53.923 647.782,53.184 L649.628,53.184 L649.628,65.489 Q648.398,66.022 646.778,66.72 Q645.157,67.417 643.476,67.868 Q641.384,68.442 639.559,68.75 Q637.734,69.057 634.74,69.057 Q629.038,69.057 624.301,67.622 Q619.564,66.186 616.077,63.192 Q612.632,60.198 610.704,55.666 Q608.777,51.134 608.777,44.981 Q608.777,38.378 610.868,33.743 Q612.96,29.108 616.529,26.114 Q619.974,23.243 624.629,21.869 Q629.284,20.495 634.329,20.495 z" fill="#FFFFFF"/>
    <path d="M765.948,20.331 Q776.531,20.331 781.863,26.032 Q787.195,31.733 787.195,42.356 L787.194,47.524 L755.735,47.524 Q755.941,50.723 757.089,52.877 Q758.238,55.03 760.124,56.302 Q761.97,57.573 764.431,58.127 Q766.892,58.681 769.804,58.681 Q772.306,58.681 774.726,58.127 Q777.146,57.573 779.156,56.671 Q780.919,55.891 782.416,54.989 Q783.913,54.087 784.857,53.389 L786.374,53.389 L786.374,65.243 Q784.611,65.94 783.155,66.535 Q781.698,67.13 779.156,67.745 Q776.818,68.36 774.336,68.709 Q771.855,69.057 768.286,69.057 Q755.243,69.057 748.291,62.823 Q741.339,56.589 741.339,45.063 Q741.339,33.784 747.82,27.057 Q754.3,20.331 765.948,20.331 z M764.841,29.559 Q760.657,29.559 758.299,32.061 Q755.941,34.563 755.695,38.87 L773.044,38.87 Q772.921,34.317 770.932,31.938 Q768.943,29.559 764.841,29.559 z" fill="#FFFFFF"/>
    <path d="M582.198,5.647 Q587.654,5.647 593.047,6.755 Q598.441,7.862 602.706,9.749 L602.706,23.694 L601.353,23.694 Q597.948,20.782 593.047,18.772 Q588.146,16.763 582.978,16.763 Q580.968,16.763 579.368,17.05 Q577.769,17.337 576.005,18.157 Q574.57,18.813 573.524,20.105 Q572.478,21.397 572.478,22.997 Q572.478,25.335 574.139,26.709 Q575.8,28.083 580.558,29.19 Q583.634,29.888 586.485,30.544 Q589.335,31.2 592.575,32.348 Q598.933,34.645 602.03,38.521 Q605.126,42.397 605.126,48.755 Q605.126,57.86 597.969,63.397 Q590.812,68.934 578.63,68.934 Q571.616,68.934 566.305,67.581 Q560.993,66.227 556.441,64.218 L556.441,49.698 L557.835,49.698 Q562.429,53.595 567.966,55.686 Q573.503,57.778 578.712,57.778 Q580.025,57.778 582.178,57.491 Q584.331,57.204 585.644,56.589 Q587.243,55.891 588.351,54.64 Q589.458,53.389 589.458,51.339 Q589.458,49.042 587.654,47.606 Q585.849,46.171 583.347,45.514 Q580.23,44.694 576.682,43.956 Q573.134,43.218 570.058,42.151 Q562.962,39.649 559.886,35.425 Q556.81,31.2 556.81,24.843 Q556.81,16.27 564.07,10.959 Q571.329,5.647 582.198,5.647 z" fill="#FFFFFF"/>
    <path d="M366.62,8.6 L366.62,21.766 L380.443,21.766 L380.443,31.774 L366.62,31.774 L366.62,48.098 Q366.62,50.518 366.661,52.323 Q366.702,54.128 367.318,55.563 Q367.892,56.999 369.348,57.84 Q370.804,58.681 373.593,58.681 Q374.741,58.681 376.608,58.188 Q378.474,57.696 379.212,57.286 L380.443,57.286 L380.443,67.417 Q378.105,68.032 375.48,68.381 Q372.855,68.729 369.04,68.729 Q360.263,68.729 356.264,65.12 Q352.265,61.511 352.265,53.307 L352.265,31.774 L346.769,31.774 L346.769,21.766 L352.265,21.766 L352.265,8.6 L366.62,8.6 z" fill="#FFFFFF"/>
    <path d="M151.247,6.755 Q157.974,6.755 161.44,7.267 Q164.906,7.78 167.941,9.421 Q171.222,11.184 172.842,14.138 Q174.462,17.091 174.462,20.946 Q174.462,25.417 172.227,28.903 Q169.991,32.389 166.054,34.03 L166.054,34.358 Q171.714,35.548 175.118,39.219 Q178.523,42.889 178.523,49.124 Q178.523,53.677 176.8,57.122 Q175.077,60.567 172.165,62.823 Q168.72,65.53 164.598,66.679 Q160.476,67.827 154.118,67.827 L129.673,67.827 L129.673,6.755 L151.247,6.755 z M147.761,41.331 L144.931,41.331 L144.931,56.63 L145.751,56.63 Q151.74,56.63 154.036,56.548 Q156.333,56.466 158.712,55.44 Q160.804,54.538 161.768,52.795 Q162.732,51.052 162.732,48.837 Q162.732,46.007 161.583,44.407 Q160.435,42.807 158.138,41.987 Q156.743,41.454 154.303,41.392 Q151.863,41.331 147.761,41.331 z M145.997,17.952 L144.931,17.952 L144.931,30.872 L146.859,30.872 Q150.796,30.872 152.375,30.79 Q153.954,30.708 155.636,29.929 Q157.482,29.067 158.179,27.55 Q158.876,26.032 158.876,24.022 Q158.876,22.546 158.117,20.987 Q157.359,19.429 155.759,18.731 Q154.241,18.075 152.17,18.014 Q150.099,17.952 145.997,17.952 L145.997,17.952 z" fill="#FFFFFF"/>
    <path d="M200.835,21.766 L200.835,67.827 L186.48,67.827 L186.48,21.766 L200.835,21.766 z" fill="#FFFFFF"/>
    <path d="M342.79,21.602 Q343.488,21.602 344.349,21.643 Q345.21,21.684 345.907,21.766 L345.907,35.343 L344.718,35.343 Q343.898,35.056 342.339,34.912 Q340.781,34.768 338.894,34.768 Q336.638,34.768 334.156,35.425 Q331.675,36.081 329.337,36.983 L329.337,67.827 L314.982,67.827 L314.982,21.766 L329.337,21.766 L329.337,28.37 Q330.322,27.468 332.065,26.094 Q333.808,24.72 335.243,23.899 Q336.802,22.956 338.873,22.279 Q340.945,21.602 342.79,21.602 z" fill="#FFFFFF"/>
    <path d="M400.663,21.766 L400.663,67.827 L386.308,67.827 L386.308,21.766 L400.663,21.766 z" fill="#FFFFFF"/>
    <path d="M533.8,20.495 Q540.855,20.495 544.587,24.945 Q548.32,29.395 548.32,37.845 L548.319,67.827 L533.882,67.827 L533.882,44.981 Q533.882,42.192 533.656,39.424 Q533.431,36.655 532.816,35.343 Q532.077,33.784 530.683,33.107 Q529.288,32.431 526.95,32.431 Q525.187,32.431 523.382,33.087 Q521.577,33.743 519.527,35.179 L519.527,67.827 L505.171,67.827 L505.171,21.766 L519.527,21.766 L519.527,26.852 Q523.054,23.858 526.397,22.177 Q529.74,20.495 533.8,20.495 z" fill="#FFFFFF"/>
    <path d="M736.089,21.602 Q736.786,21.602 737.648,21.643 Q738.509,21.684 739.206,21.766 L739.206,35.343 L738.017,35.343 Q737.197,35.056 735.638,34.912 Q734.079,34.768 732.193,34.768 Q729.937,34.768 727.455,35.425 Q724.974,36.081 722.636,36.983 L722.636,67.827 L708.281,67.827 L708.281,21.766 L722.636,21.766 L722.636,28.37 Q723.62,27.468 725.364,26.094 Q727.107,24.72 728.542,23.899 Q730.101,22.956 732.172,22.279 Q734.243,21.602 736.089,21.602 z" fill="#FFFFFF"/>
    <path d="M201.245,4.007 L201.245,15.204 L186.07,15.204 L186.07,4.007 L201.245,4.007 z" fill="#FFFFFF"/>
    <path d="M401.073,4.007 L401.073,15.204 L385.898,15.204 L385.898,4.007 L401.073,4.007 z" fill="#FFFFFF"/>
  </g>
</svg>
