<?xml version="1.0" encoding="UTF-8"?>
<!DOCTYPE svg PUBLIC "-//W3C//DTD SVG 1.1//EN" "http://www.w3.org/Graphics/SVG/1.1/DTD/svg11.dtd">
<svg version="1.1" xmlns="http://www.w3.org/2000/svg" xmlns:xlink="http://www.w3.org/1999/xlink" x="0" y="0" width="600" height="230" viewBox="0, 0, 600, 230">
  <g id="Layer_1">
    <text transform="matrix(1, 0, 0, 1, 300, 35.5)">
      <tspan x="-196.801" y="-5.5" font-family="Tahoma-Bold" font-size="24" fill="#008CFF">Example Bill Opposition Factor</tspan>
    </text>
    <text transform="matrix(1, 0, 0, 1, 300, 70.5)">
      <tspan x="-51.075" y="-3.5" font-family="Tahoma-Bold" font-size="14" fill="#008CFF">H.R. 5272-113</tspan>
    </text>
    <text transform="matrix(1, 0, 0, 1, 300, 95.487)">
      <tspan x="-78.812" y="-4.523" font-family="Tahoma-Bold" font-size="14" fill="#008CFF">Party Vote Breakdown</tspan>
    </text>
    <text transform="matrix(1, 0, 0, 1, 233.575, 117.238)">
      <tspan x="-19.889" y="-0.457" font-family="Tahoma-Bold" font-size="14" fill="#008CFF">"Yea"</tspan>
    </text>
    <text transform="matrix(1, 0, 0, 1, 362.262, 110.939)">
      <tspan x="-20.463" y="5" font-family="Tahoma-Bold" font-size="14" fill="#008CFF">"Nay"</tspan>
    </text>
    <text transform="matrix(1, 0, 0, 1, 216.464, 164.396)">
      <tspan x="-5.301" y="-12" font-family="Tahoma-Bold" font-size="14" fill="#008CFF">D</tspan>
      <tspan x="-4.457" y="22" font-family="Tahoma-Bold" font-size="14" fill="#008CFF">4</tspan>
    </text>
    <text transform="matrix(1, 0, 0, 1, 252.432, 170.471)">
      <tspan x="-5.083" y="-18.076" font-family="Tahoma-Bold" font-size="14" fill="#008CFF">R</tspan>
      <tspan x="-13.371" y="15.924" font-family="Tahoma-Bold" font-size="14" fill="#008CFF">212</tspan>
    </text>
    <text transform="matrix(1, 0, 0, 1, 344.497, 166.405)">
      <tspan x="-5.301" y="-14.01" font-family="Tahoma-Bold" font-size="14" fill="#008CFF">D</tspan>
      <tspan x="-13.371" y="19.99" font-family="Tahoma-Bold" font-size="14" fill="#008CFF">181</tspan>
    </text>
    <text transform="matrix(1, 0, 0, 1, 385.201, 172.278)">
      <tspan x="-5.083" y="-19.883" font-family="Tahoma-Bold" font-size="14" fill="#008CFF">R</tspan>
      <tspan x="-8.914" y="14.117" font-family="Tahoma-Bold" font-size="14" fill="#008CFF">11</tspan>
    </text>
    <text transform="matrix(1, 0, 0, 1, 300, 224.078)">
      <tspan x="-80.288" y="-0.457" font-family="Tahoma-Bold" font-size="14" fill="#FF0000">Opposition Factor: 378</tspan>
    </text>
  </g>
</svg>
